HIERARCHY
ROOT Hips
{
	OFFSET 0.00000 0.00000 0.00000
	CHANNELS 6 Xposition Yposition Zposition Zrotation Yrotation Xrotation 
	JOINT LHipJoint
	{
		OFFSET 0 0 0
		CHANNELS 3 Zrotation Yrotation Xrotation
		JOINT LeftUpLeg
		{
			OFFSET 1.38280 -1.96574 0.54427
			CHANNELS 3 Zrotation Yrotation Xrotation
			JOINT LeftLeg
			{
				OFFSET 2.72096 -7.47578 0.00000
				CHANNELS 3 Zrotation Yrotation Xrotation
				JOINT LeftFoot
				{
					OFFSET 2.73041 -7.50176 0.00000
					CHANNELS 3 Zrotation Yrotation Xrotation
					JOINT LeftToeBase
					{
						OFFSET 0.16150 -0.44371 2.18031
						CHANNELS 3 Zrotation Yrotation Xrotation
						End Site
						{
							OFFSET 0.00000 -0.00000 1.12127
						}
					}
				}
			}
		}
	}
	JOINT RHipJoint
	{
		OFFSET 0 0 0
		CHANNELS 3 Zrotation Yrotation Xrotation
		JOINT RightUpLeg
		{
			OFFSET -1.57224 -1.96575 0.54427
			CHANNELS 3 Zrotation Yrotation Xrotation
			JOINT RightLeg
			{
				OFFSET -2.95935 -8.13076 0.00000
				CHANNELS 3 Zrotation Yrotation Xrotation
				JOINT RightFoot
				{
					OFFSET -2.52345 -6.93311 0.00000
					CHANNELS 3 Zrotation Yrotation Xrotation
					JOINT RightToeBase
					{
						OFFSET -0.04475 -0.10171 1.86688
						CHANNELS 3 Zrotation Yrotation Xrotation
						End Site
						{
							OFFSET -0.00000 -0.00000 0.95157
						}
					}
				}
			}
		}
	}
	JOINT LowerBack
	{
		OFFSET 0 0 0
		CHANNELS 3 Zrotation Yrotation Xrotation
		JOINT Spine
		{
			OFFSET 0.00669 2.07367 0.09104
			CHANNELS 3 Zrotation Yrotation Xrotation
			JOINT Spine1
			{
				OFFSET -0.00664 2.06198 -0.04732
				CHANNELS 3 Zrotation Yrotation Xrotation
				JOINT Neck
				{
					OFFSET 0 0 0
					CHANNELS 3 Zrotation Yrotation Xrotation
					JOINT Neck1
					{
						OFFSET -0.00021 1.49948 0.16345
						CHANNELS 3 Zrotation Yrotation Xrotation
						JOINT Head
						{
							OFFSET 0.06080 1.50567 -0.26702
							CHANNELS 3 Zrotation Yrotation Xrotation
							End Site
							{
								OFFSET 0.01726 1.56470 -0.11854
							}
						}
					}
				}
				JOINT LeftShoulder
				{
					OFFSET 0 0 0
					CHANNELS 3 Zrotation Yrotation Xrotation
					JOINT LeftArm
					{
						OFFSET 3.14993 0.82932 -0.22488
						CHANNELS 3 Zrotation Yrotation Xrotation
						JOINT LeftForeArm
						{
							OFFSET 5.68236 -0.00000 -0.00000
							CHANNELS 3 Zrotation Yrotation Xrotation
							JOINT LeftHand
							{
								OFFSET 3.17112 -0.00000 0.00000
								CHANNELS 3 Zrotation Yrotation Xrotation
								JOINT LeftFingerBase
								{
									OFFSET 0 0 0
									CHANNELS 3 Zrotation Yrotation Xrotation
									JOINT LeftHandIndex1
									{
										OFFSET 0.63269 -0.00000 0.00000
										CHANNELS 3 Zrotation Yrotation Xrotation
										End Site
										{
											OFFSET 0.51009 -0.00000 0.00000
										}
									}
								}
								JOINT LThumb
								{
									OFFSET 0 0 0
									CHANNELS 3 Zrotation Yrotation Xrotation
									End Site
									{
										OFFSET 0.51788 -0.00000 0.51788
									}
								}
							}
						}
					}
				}
				JOINT RightShoulder
				{
					OFFSET 0 0 0
					CHANNELS 3 Zrotation Yrotation Xrotation
					JOINT RightArm
					{
						OFFSET -3.10571 0.91279 -0.33334
						CHANNELS 3 Zrotation Yrotation Xrotation
						JOINT RightForeArm
						{
							OFFSET -5.87120 -0.00000 -0.00000
							CHANNELS 3 Zrotation Yrotation Xrotation
							JOINT RightHand
							{
								OFFSET -3.37589 -0.00000 0.00000
								CHANNELS 3 Zrotation Yrotation Xrotation
								JOINT RightFingerBase
								{
									OFFSET 0 0 0
									CHANNELS 3 Zrotation Yrotation Xrotation
									JOINT RightHandIndex1
									{
										OFFSET -0.60326 -0.00000 0.00000
										CHANNELS 3 Zrotation Yrotation Xrotation
										End Site
										{
											OFFSET -0.48636 -0.00000 0.00000
										}
									}
								}
								JOINT RThumb
								{
									OFFSET 0 0 0
									CHANNELS 3 Zrotation Yrotation Xrotation
									End Site
									{
										OFFSET -0.49379 -0.00000 0.49379
									}
								}
							}
						}
					}
				}
			}
		}
	}
}
MOTION
Frames: 6
Frame Time: 0.0357143
0.00 0.00 0.00 0 0 0 0 0 0 -21 0 0 0 0 0 0 0 0 0 0 0 0 0 0 21 0 0 0 0 0 0 0 0 0 0 0 0 0 0 0 0 0 0 0 0 0 0 -16 0 0 21 0 0 11 0 0 0 -8 0 0 0 0 0 0 0 0 0 0 0 0 0 0 0 0 0 0 0 0 8 0 0 0 0 0 0 0 0 0 0 0 0 0 0 0 0 0
0.00 0.00 0.00 168.9630 -83.9431 -158.8220 0.0000 0.0000 0.0000 -17.4013 -11.1579 -38.9940 4.1732 12.3873 37.1164 0.8090 1.7362 -17.7032 1.4812 -7.6896 -21.7753 0.0000 0.0000 0.0000 23.7627 8.7456 -8.6239 -1.9389 -8.7376 24.9780 0.6818 14.4699 4.3868 -6.0344 -14.4616 45.1195 2.2558 1.4021 -7.2339 1.9071 1.5046 2.4215 0.9202 0.7784 6.6053 0.1211 0.3908 -19.3113 -0.7993 0.5603 21.7368 -0.2332 0.1136 10.1296 0.0000 0.0000 0.0000 -87.5326 4.9856 34.7721 19.0476 -29.4778 -5.0542 -0.0000 0.0000 -17.8144 16.1881 33.6194 9.1312 -7.1250 0.0000 -0.0000 -20.3992 63.5481 -9.3724 0.0000 0.0000 0.0000 85.0967 10.1512 39.7245 -27.5730 38.7202 -9.8555 0.0000 0.0000 12.4396 -23.0704 30.4485 -12.1801 7.1250 -0.0000 -0.0000 4.6570 2.5003 4.8716
0.00 0.00 0.00 174.3670 -83.7437 -164.0690 0.0000 0.0000 0.0000 -18.8135 -10.6806 -38.0589 1.5540 7.8678 22.3134 0.6212 4.5107 -17.2111 1.3097 -7.2493 -20.4560 0.0000 0.0000 0.0000 24.9244 6.6862 -4.8259 -1.3481 -7.3507 20.7585 0.5761 13.3036 5.0878 -6.0433 -14.4701 45.1551 2.4338 1.4529 -7.3433 1.8497 1.5536 2.4519 0.7708 0.8115 6.7073 0.1048 0.6152 -19.2808 -0.8672 0.8923 21.8851 -0.2078 0.2540 10.1794 -0.0000 0.0000 0.0000 -87.6213 4.7630 34.2178 17.7758 -27.8691 -4.4439 -0.0000 0.0000 -16.7228 15.4921 34.3483 8.8885 -7.1250 0.0000 -0.0000 -21.8823 64.0320 -10.3329 -0.0000 0.0000 0.0000 83.8972 9.8617 38.9323 -28.3748 39.4590 -10.3610 0.0000 0.0000 11.4174 -23.7533 30.1014 -12.4464 7.1250 -0.0000 -0.0000 4.2134 2.2911 4.3902
0.00 0.00 0.00 181.9230 -76.0821 -168.5330 0.0000 0.0000 0.0000 -21.4960 -9.6319 -36.7938 2.4503 9.7470 28.1614 0.3128 7.2740 -15.6531 0.0176 -0.8572 -2.3559 0.0000 0.0000 0.0000 20.8917 3.3076 -2.2122 -3.8644 -11.9777 35.6532 -0.7831 -9.9299 16.2321 -2.5527 -9.9331 28.7605 -1.9167 1.0151 -9.9081 -0.5969 1.6182 1.0416 0.7019 0.7312 6.6255 0.9001 3.5763 -19.8963 -2.0756 5.0699 18.6880 -0.1758 2.1625 9.2406 -0.0000 -0.0000 0.0000 -85.0196 3.0661 26.3044 15.2003 -24.4245 -3.3083 -0.0000 0.0000 -13.9923 15.1529 34.9912 8.8273 -7.1250 0.0000 -0.0000 -22.9214 64.5231 -11.1100 -0.0000 -0.0000 0.0000 84.8919 -6.0459 5.7058 -12.2805 20.2239 -2.1983 0.0000 0.0000 28.0068 -15.2077 26.5408 -6.9256 7.1250 -0.0000 -0.0000 8.8437 -2.8948 8.4890
0.00 0.00 0.00 182.5870 -72.1442 -168.7770 0.0000 0.0000 0.0000 -21.6172 -8.7948 -34.6387 2.5702 9.9644 28.8616 0.8049 6.4449 -20.4803 0.0006 0.1621 0.4455 0.0000 0.0000 0.0000 18.2281 7.0090 -11.1110 -7.3084 -15.5862 50.0312 -0.4949 -5.8995 12.5827 -0.8140 -5.7572 16.0815 -2.3538 0.8218 -10.4702 -0.4652 1.4202 1.0374 1.0668 0.6105 6.9325 1.5943 4.7868 -19.7121 -3.5718 6.8324 17.5373 -0.5684 2.8877 8.9233 0.0000 -0.0000 0.0000 -84.2467 1.5057 29.1646 16.9973 -26.8542 -4.0861 -0.0000 0.0000 -16.0043 15.8515 34.6166 9.1630 -7.1250 0.0000 -0.0000 -21.7539 64.3738 -10.4423 0.0000 -0.0000 0.0000 82.9329 -6.1526 10.4382 -14.4849 23.4237 -3.0182 0.0000 0.0000 24.1041 -12.3674 27.0807 -5.7004 7.1250 -0.0000 -0.0000 10.5763 -2.7540 10.2342
0.00 0.00 0.00 183.8300 -71.7545 -171.6140 0.0000 0.0000 0.0000 -22.6120 -8.1106 -29.2470 2.5890 9.9980 28.9702 1.3339 4.4239 -23.8125 0.0004 0.1260 0.3463 0.0000 0.0000 0.0000 16.4273 9.1770 -20.3350 -9.2068 -16.9390 56.8027 -0.0290 0.1459 -3.1647 -2.2970 -9.4592 27.2425 -2.0524 -0.4212 -9.4370 0.3227 -0.3419 1.4535 1.4431 -0.2554 6.8467 2.1097 5.7408 -19.0916 -4.2515 8.1697 18.3259 -0.7048 3.4515 9.1776 0.0000 0.0000 0.0000 -82.6010 -4.3801 33.8389 16.8759 -26.6938 -4.0314 -0.0000 0.0000 -15.0382 15.6360 34.2984 8.9625 -7.1250 0.0000 -0.0000 -21.6725 64.0250 -10.2257 0.0000 0.0000 0.0000 82.1436 -5.0852 11.6833 -19.1661 29.6246 -5.1127 0.0000 0.0000 15.9043 -19.7361 27.1981 -9.3124 7.1250 -0.0000 -0.0000 6.1937 -1.4934 6.0660
